<?xml version="1.0" encoding="UTF-8" standalone="no"?>
<svg
   xmlns:dc="http://purl.org/dc/elements/1.1/"
   xmlns:cc="http://creativecommons.org/ns#"
   xmlns:rdf="http://www.w3.org/1999/02/22-rdf-syntax-ns#"
   xmlns:svg="http://www.w3.org/2000/svg"
   xmlns="http://www.w3.org/2000/svg"
   xmlns:sodipodi="http://sodipodi.sourceforge.net/DTD/sodipodi-0.dtd"
   xmlns:inkscape="http://www.inkscape.org/namespaces/inkscape"
   inkscape:version="1.0 (4035a4f, 2020-05-01)"
   sodipodi:docname="logo-p8-white.svg"
   xml:space="preserve"
   style="enable-background:new 0 0 1058.5 534;"
   viewBox="0 0 1058.5 534"
   y="0px"
   x="0px"
   id="Calque_1"
   version="1.1"><metadata
   id="metadata1613"><rdf:RDF><cc:Work
       rdf:about=""><dc:format>image/svg+xml</dc:format><dc:type
         rdf:resource="http://purl.org/dc/dcmitype/StillImage" /></cc:Work></rdf:RDF></metadata><defs
   id="defs1611" /><sodipodi:namedview
   inkscape:current-layer="Calque_1"
   inkscape:window-maximized="0"
   inkscape:window-y="160"
   inkscape:window-x="328"
   inkscape:cy="262.25"
   inkscape:cx="533.05"
   inkscape:zoom="0.73080217"
   showgrid="false"
   id="namedview1609"
   inkscape:window-height="713"
   inkscape:window-width="1380"
   inkscape:pageshadow="2"
   inkscape:pageopacity="0"
   guidetolerance="10"
   gridtolerance="10"
   objecttolerance="10"
   borderopacity="1"
   bordercolor="#666666"
   pagecolor="#ffffff" />
<style
   id="style1526"
   type="text/css">
	.st0{fill:#4C57D6;}
	.st4{fill:#FFFFFF;}
</style>
<g
   id="g1606"
   class="st4">
	<path
   style="fill:#e52414;fill-opacity:1"
   id="path1528"
   d="M1058.5,372.9c-0.8,3.2-1.6,6.3-2.5,9.5c-4.9,19.2-15.5,34.8-30.2,47.4c-26.3,22.5-57.2,33.4-91.4,35.5   c-40,2.4-77.1-6.1-109.5-31.1c-18.1-14-31.4-31.8-35.7-55c-6-32.2,4.8-59.2,28.1-80.8c9.9-9.2,21.7-16.4,32.5-24.5   c-3.6-2.5-8.2-5.5-12.5-8.9c-15-11.9-26.3-26.6-30.5-45.8c-6.3-29.4,4.1-53.4,25.3-72.9c19.5-17.9,43-26.9,68.8-29.9   c35.3-4,68.5,2,97.8,23.7c15.5,11.5,27,26.2,31.9,45.4c6.4,25.3-0.1,47.5-17.2,66.4c-6.7,7.4-14.7,13.6-22.3,20.6   c3.4,1.8,7.3,3.7,11.1,5.8c22.6,12.6,40.8,29.4,50.6,54.3c2.4,6.2,3.7,12.9,5.5,19.4C1058.5,358.9,1058.5,365.9,1058.5,372.9z    M923.6,291.1c-11.9,2-24,3-35.6,6.1c-21.4,5.6-40.2,16.1-53.2,35c-8.8,12.7-12,26.7-8.6,42.1c4.1,18.4,15.9,30.7,30.7,40.4   c26.5,17.2,55.7,21,86.3,16.6c21.3-3,40.8-10.8,57.1-25.5c11.5-10.4,19.6-22.7,21.1-38.7c1.8-20.8-7.1-36.9-22.1-49.7   C977.4,299,951.6,292.5,923.6,291.1z M916.7,259.2c21.9,0.1,39.8-4.3,55.9-15c8.5-5.6,16.9-11.9,21-21.8c9-21.9,4.8-39.5-13.1-54.9   c-14.8-12.7-32.2-18.7-51.3-20.2c-26-2-50.2,3.2-70.8,20.5c-24,20.1-23.9,51-0.1,71.4C876,254.4,897.1,258.7,916.7,259.2z"
   class="st0" />
	<path
   id="path1530"
   d="M8.2,120.9c36.2-1.7,70.8-1.5,103.3,16.5c26.9,14.9,42.2,37.5,47.2,66.2c3.1,18,3.5,36.1-2.5,53.8   c-8,23.7-24.9,40.2-48.2,51.4c-19.1,9.2-39.4,14.3-60.7,15.8c-4.4,0.3-5.2,1.8-5.2,5.4c0.1,29.5,0.1,58.9,0.1,88.4   c0,0.8-0.1,1.6-0.2,2.6c-11.3,0-22.5,0-34.3,0C7.6,399.9,8.2,143.9,8.2,120.9z M41.9,296c15.5-0.6,29.6-3.4,43.1-8.9   c40.7-16.7,57-61.8,35.6-98.4c-11.9-20.3-31.3-30.7-54.1-36.6c-7.9-2.1-16.2-3-24.6-4.5C41.9,197.6,41.9,246.4,41.9,296z" />
	<path
   id="path1532"
   d="M7.7,19.5c5.9,0,11.7,0,18.2,0c0,5.9,0,11.5,0,17.2c0.1,13.8,0,27.6,0.2,41.3c0.2,10.4,6.8,16.1,18.2,16.3   c11.2,0.2,17.2-4.5,17.5-15.1c0.5-17.8,0.3-35.6,0.5-53.4c0-2,0-4,0-6.3c6.5,0,12.5,0,18.9,0c0.1,1.6,0.2,3.2,0.2,4.8   c0,18.2,0.1,36.4-0.3,54.6c-0.4,18.8-9.6,29.7-28.8,31.5c-7.3,0.7-15,0.4-22.2-1C18.4,107.1,10.5,99,8,87.3C7.7,86,7.6,75.7,7.6,74   C7.7,55.9,7.7,37.7,7.7,19.5z" />
	<path
   id="path1534"
   d="M492.4,530.3c0-14.6,0-29.2,0-43.7c6.4-1.9,10.2,0.2,13,5.9c3.6,7.1,8.2,13.7,13.2,22c0-10.4,0-19.2,0-28.2   c3.2,0,5.8,0,9.1,0c0,14.2,0,28.2-0.1,42.2c0,1-1.3,2-2,2.9c-2.7,0-5.3,0-8,0c-5.1-9.1-10.1-18.3-15.2-27.4   c-0.5,0.2-1.1,0.4-1.6,0.6c0,8.6,0,17.1,0,26.2C497.6,530.7,495,530.5,492.4,530.3z" />
	<path
   id="path1536"
   d="M199.7,530.3c0-14.6,0-29.2,0-43.7c6.4-1.9,10.2,0.2,13.1,5.9c3.6,7.1,8.2,13.7,13.2,22c0-10.4,0-19.2,0-28.2   c3.2,0,5.8,0,9.1,0c0,14.2,0,28.2-0.1,42.2c0,1-1.3,2-2,2.9c-2.7,0-5.3,0-8,0c-5.1-9.1-10.1-18.3-15.2-27.4   c-0.5,0.2-1.1,0.4-1.6,0.6c0,8.6,0,17.1,0,26.2C204.9,530.7,202.3,530.5,199.7,530.3z" />
	<path
   id="path1538"
   d="M244.2,530.8c0-14.6,0-29.3,0-44.2c5-1.3,9.2-1.2,12.2,4.9c3.7,7.5,8.6,14.5,13.9,23.2c0-10.6,0-19.4,0-28.4   c3.1,0,5.5,0,8.5,0c0,14.3,0,28.5-0.1,42.7c0,0.8-0.8,1.6-1.2,2.5c-2.7,0-5.3,0-8,0c-5.3-9.3-10.7-18.7-16-28   c-0.4,0.1-0.8,0.3-1.2,0.4c0,4.4,0,8.7,0,13.1c0,4.5,0,9.1,0,13.9C249.1,530.8,246.6,530.8,244.2,530.8z" />
	<path
   id="path1540"
   d="M590.7,531.4c0-15,0-30,0-45.1c7.7,0,14.9,0,22.1,0c1.3,0,2.6,0.5,3.9,0.9c8.2,2.9,12.2,11.8,11.2,24.8   c-0.8,10.2-5.8,16.6-14.3,18.3c-0.8,0.2-1.5,0.7-2.2,1.1C604.5,531.4,597.6,531.4,590.7,531.4z M600.3,494.3c0,9.8,0,18.8,0,28.4   c5.7-0.6,12.2,2.4,15.8-3.8c3.8-6.4,3.6-14,0.3-20.5C613,491.8,606.2,494.3,600.3,494.3z" />
	<path
   id="path1542"
   d="M745.1,531.4c-5.1-3.8-9.9-7.6-9.8-15.4c2.7-0.3,5.5-0.6,8.1-0.9c3.6,7.3,7.1,9.7,12.8,8c2.1-0.7,4.4-3,5.1-5.1   c0.3-1-2.5-3.9-4.4-4.7c-3.8-1.7-8-2.2-11.9-3.7c-6.2-2.4-8.6-6.6-8.2-13c0.4-6.2,4.4-9,9.7-10.6c11.8-3.4,21.8,1.6,23.2,11.6   c0,0.3-0.2,0.7-0.3,1.4c-3.9-0.1-7.9,2-11.1-3.5c-1.1-1.9-7.9-1.9-11.2-0.5c-3.4,1.5-1.4,4.6,1.6,5.6c3.9,1.4,8,2.4,11.9,3.8   c7.4,2.5,10.4,6.3,10.5,13.2c0.1,6.4-3.1,10.4-10.6,13.1c-0.3,0.1-0.4,0.6-0.6,0.8C755,531.4,750.1,531.4,745.1,531.4z" />
	<path
   id="path1544"
   d="M635.3,531.4c0-15,0-29.9,0-45.1c11,0,21.7,0,32.7,0c0,2.5,0,4.7,0,7.4c-7.7,0-15.3,0-23.3,0c0,3.3,0,6.1,0,9.4   c6.9,0,13.9,0,21.2,0c0,2.8,0,5.2,0,8.1c-6.8,0-13.7,0-21.1,0c0,4,0,7.5,0,11.4c7.8,0,15.5,0,23.6,0c0.4,3.2,0.7,6,1.1,8.8   C658.2,531.4,646.8,531.4,635.3,531.4z" />
	<path
   id="path1546"
   d="M702.4,511.7c0-8.2,0-16.5,0-25.2c3,0,5.7,0,8.5,0c0,14.8,0,29.5,0,44.2c-6.7,1.3-10.7-1.6-13.8-7.7   c-3.3-6.7-7.6-12.8-11.5-19.2c-1.1,4.9-1,9.2-1.2,13.6c-0.2,4.7-0.8,9.3-1.2,14c-2.3,0-4.6,0-6.9,0c0-14.9,0-29.9,0-44.8   c5.8-1.8,9.6-0.2,12.5,5.4c3.5,6.9,8.1,13.4,12.2,20c0.4,0.4,0.9,0.8,1.3,1.3C702.4,512.8,702.4,512.3,702.4,511.7z" />
	<path
   id="path1548"
   d="M336.9,531.4c-5.2-3.6-10-7.5-10.1-15.4c2.6-0.3,5.3-0.6,8.5-1c1.6,6.1,5.4,9.5,11.6,8.1   c2.3-0.5,4.1-3.1,6.2-4.8c-1.6-1.8-2.9-4.2-4.9-5.2c-3.6-1.7-7.7-2.2-11.4-3.6c-6.4-2.5-9-6.9-8.4-13.4c0.5-5.4,4.2-9.5,10.6-10.4   c4.2-0.6,8.8-0.4,12.9,0.5c6.2,1.4,8.7,5.2,9.2,12.4c-4.3,0.6-8.1,1.5-11.4-3.6c-1.2-1.9-7.4-1.6-10.7-0.4   c-3.3,1.1-1.9,4.2,0.7,5.5c2.9,1.4,6.1,2.1,9.2,3c6.7,2,13,4.1,13.7,13c0.7,8.5-4.2,12.3-10.7,15.3   C346.8,531.4,341.9,531.4,336.9,531.4z"
   class="st4" />
	<path
   id="path1550"
   d="M70.5,531.4c0-15,0-29.9,0-44.8c5.9-1.7,9.7-0.2,12.6,5.4c3.7,7.3,8.4,14.2,13.4,22.4c0-10,0-18.9,0-28c3.2,0,5.7,0,8.5,0   c0,14.8,0,29.6,0,44.3c-6.8,1.4-10.6-1.9-13.7-7.8c-3.4-6.7-7.7-12.9-11.6-19.3c-1,5.1-0.9,9.8-1.1,14.5c-0.2,4.5-0.8,9-1.2,13.4   C75.1,531.4,72.8,531.4,70.5,531.4z" />
	<path
   id="path1552"
   d="M398.7,531.4c-5.7-3.4-10.5-7.3-10.5-15.4c2.7-0.3,5.3-0.7,8.2-1c1.8,5.8,5.5,9.6,11.6,8.1   c2.5-0.6,4.4-3.4,6.6-5.2c-1.8-1.6-3.3-3.8-5.4-4.8c-3.6-1.6-7.6-2.3-11.4-3.7c-5.9-2.2-8.5-6.2-8.3-12.4c0.2-6.2,3.8-9.3,9.2-11   c12.5-3.9,22.6,1.3,23.9,12.7c-4.3,0.2-8.3,1.8-11.6-3.7c-1.1-1.8-7.5-1.6-10.8-0.4c-3.1,1.1-1.9,4.3,0.8,5.5   c2.7,1.3,5.7,1.9,8.7,2.8c6.7,2,13.3,3.9,14.2,12.7c0.9,8.3-3.8,12.6-10.3,15.8C408.6,531.4,403.6,531.4,398.7,531.4z"
   class="st4" />
	<path
   id="path1554"
   d="M427.2,531.4c0.1-1.3-0.2-2.7,0.3-3.9c5.2-13.7,10.5-27.4,15.8-41.1c9.9-1,9.9-1,13.3,7.7c4.2,10.7,8.5,21.3,12.5,32   c0.6,1.6,0.3,3.5,0.4,5.2c-3,0-6.1,0-9.1,0c-1.9-10.4-2.1-10.6-11.9-10.6c-2.8,0-5.6,0-7.6,0c-2.5,3.9-4.7,7.3-6.8,10.6   C431.8,531.4,429.5,531.4,427.2,531.4z M453.9,512.5c-1.9-5.1-3.6-9.7-5.7-15.3c-2,5.7-3.7,10.3-5.4,15.3   C446.7,512.5,450,512.5,453.9,512.5z" />
	<path
   id="path1556"
   d="M126.5,531.4c-13.1-9.1-17.1-20.8-11.7-34.3c3.3-8.4,10.8-12.7,20.7-12c8.3,0.6,13.3,4.8,15.5,13.2   c-4.3,1.1-7.7,3.6-11.7-2.4c-4.1-6.1-14.7-2.3-16.1,5.6c-0.7,4.1-0.5,8.4-0.1,12.6c0.4,5.2,3.3,8.5,8.6,9.1   c5.2,0.6,8.2-2.1,9.9-6.8c0.3-0.7,0.6-1.4,1.1-2.4c2.9,0.9,5.7,1.8,8.5,2.6c-1.1,7.7-6,11.8-12.1,14.8   C134.9,531.4,130.7,531.4,126.5,531.4z" />
	<path
   id="path1558"
   d="M7.6,486.3c0.8-0.1,1.5-0.1,2.3-0.2c6-1.1,9.1,1.1,10.6,7.4c1.9,8,5.1,15.6,8.2,24.6c2.9-8.8,5.3-16.5,7.8-24.2   c2.7-8.4,2.7-8.4,12.4-7.4c-5,14.1-9.9,28.2-14.9,42.2c-0.4,1.1-1.6,1.8-2.4,2.7c-2.7,0-5.3,0-8,0c-5.3-14.7-10.7-29.3-16-44   C7.6,487.1,7.6,486.7,7.6,486.3z" />
	<path
   id="path1560"
   d="M546.2,531.4c0-12.1,0-24.3,0-37.1c-4.2-0.3-8.3-0.5-12.5-0.8c0-2.4,0-4.7,0-7.2c11.5,0,22.9,0,35,0   c0.1,2.2,0.2,4.4,0.3,7.1c-4.4,0.4-8.5,0.7-13.4,1.1c0,10.1,0.1,20.2-0.1,30.4c0,2.2-0.8,4.3-1.3,6.5   C551.5,531.4,548.8,531.4,546.2,531.4z" />
	<path
   id="path1562"
   d="M52.2,531.4c0.2-12.1,0.3-24.1,0.5-36.2c0-2.9,0-5.7,0-8.9c3.3,0,6.3,0,9.8,0c0,15.1,0,30.1,0,45.1   C59.1,531.4,55.6,531.4,52.2,531.4z" />
	<path
   id="path1564"
   d="M719.9,531.4c0-14.9,0-29.9,0-45.1c3.1,0,5.9,0,9.1,0c0,14.2,0,28.4,0,42.5c0,0.8-0.7,1.7-1.1,2.5   C725.3,531.4,722.6,531.4,719.9,531.4z" />
	<path
   id="path1566"
   d="M475.3,531.4c0-14.9,0-29.9,0-45.1c3,0,5.7,0,9,0c0,14,0.1,27.8-0.1,41.6c0,1.2-1.3,2.3-2,3.5   C479.8,531.4,477.5,531.4,475.3,531.4z" />
	<path
   id="path1568"
   d="M754.9-7c-1,1.6-1.9,3.4-3.1,4.9c-2,2.4-4.7,4.4-6.4,6.9c-4.3,6.1-10.1,7.7-17.5,6c2.5-5.9,5-11.8,7.5-17.8   C741.9-7,748.4-7,754.9-7z"
   class="st4" />
	<path
   id="path1570"
   d="M516.7,436.2c0,9.8,0,19.1,0,29.2c-31.3-2.5-56.9-14.7-76.4-37.2c-19.2-22.1-26.6-48.5-29.5-76.1c-0.9-0.3-1.4-0.7-1.9-0.7   c-9.7,0.8-9.7,0.9-9.7,9.9c0,19.7,0,39.3,0,59.5c-11.5,0-22.9,0-35,0c0-97.2,0-194.3,0-292.7c11.9,0.7,24.1,1.3,36.3,2.3   c5.3,0.4,10.6,1.5,15.8,2.5c31.6,6.3,58.5,19.7,77.5,44.8c13.1,17.4,18.6,37.2,20.1,58.1c1.8,26.6-3.7,51.4-22.2,72.5   c-11.6,13.3-26,23.1-42.7,30.1c-5.2,2.2-7.1,4.5-6.3,10c2.6,17.8,7.3,34.9,16.8,50.7C472,420.4,490.7,433,516.7,436.2z    M398.7,324.6c10.7-3.1,20.2-5.3,29.1-8.7c22.7-8.8,40.9-22.4,49.5-44.7c12.5-32.8,5.8-76.6-40.5-100.3   c-11.9-6.1-24.5-10.2-38.1-12.8C398.7,213.2,398.7,267.9,398.7,324.6z" />
	<path
   id="path1572"
   d="M322.1,421.3c-11.2,0-22.1,0-33.8,0c0-3,0-5.4,0-7.9c-0.1-25-0.1-50-0.1-75c0-3-0.1-5.1-4.4-5.1   c-26.7,0.1-53.5,0.1-80.2,0.1c-0.9,0-1.7,0.3-3.6,0.6c-1.1,28.8-2.2,57.7-3.3,86.9c-10.1,0-20.5,0-31.3,0c0-10.5-0.5-20.8,0.1-31   c1.5-24.9,2.4-49.9,5.5-74.6c6-48.9,16.3-96.8,44.5-139.5c12.8-19.4,28.8-35.8,51.9-45.3c11.9-4.9,24.2-6.4,37-6.1   c5.6,0.1,11.3,0,17.9,0C322.1,223.7,322.1,322.3,322.1,421.3z M287.5,153.2c-3.1,1.1-5.1,1.7-7,2.5c-11.7,5.1-19.9,13.9-27.5,23.2   c-12.6,15.4-20.5,32.9-27.4,51c-8.4,22.3-14.3,45.2-18.4,68.9c26.9,0,53.4,0,80.2,0C287.5,250.5,287.5,202.5,287.5,153.2z" />
	<path
   id="path1574"
   d="M598.9,339c11.7,0,22.2,0,32.8,0c1,7,1.6,14.1,3.1,21.1c4.4,20.7,19.7,34.5,40.6,37.1c30.2,3.9,59.4-17.9,62-46.4   c2.9-31.2-12.5-52-44.6-61c-12.7-3.6-25.7-7-37.7-12c-19.6-8.2-35.7-20.8-44.4-39.9c-13.1-28.9-2-68.5,24.5-87.6   c10.1-7.3,21.8-11,34.3-12.8c16.1-2.3,32-2,47.5,2.9c27.2,8.7,40.3,28.2,45,53.5c0.6,2.9,0.8,5.9,1.1,8.9c0.2,2.1,0,4.3,0,6.9   c-10,0-19.9,0-29.5,0c-1-5.4-1.5-10.7-3.1-15.7c-5.2-16.9-19.3-26.6-40.7-28.4c-27.3-2.3-46.4,11.8-50.1,36.9   c-3.2,22.1,7.7,39,32.7,48.4c11.6,4.4,24.2,6.4,36.1,10.2c30.9,9.8,52.5,28.4,60.3,58.7c6.7,25.7,2.1,50.3-12.2,73   c-11.2,17.8-28.3,28.3-50,31.8c-17,2.8-34.1,2.4-50.8-2.1c-31.4-8.5-48.4-28.9-54.3-58.2C600,356.3,599.8,347.9,598.9,339z" />
	<path
   id="path1576"
   d="M576.1,421.1c-11,0-22.5,0-35,0c0-96.8,0-193.4,0-290.5c11,0,22.5,0,35,0C576.1,227.4,576.1,323.9,576.1,421.1z" />
	<path
   id="path1578"
   d="M458.2,69.2c15.1,9.9,20.9,26.4,31.5,40.1c-8.1,0-14.9,0.2-21.7-0.1c-1.3-0.1-2.8-2.7-3.7-3.9   c-5.7-7.8-11.5-15.5-16.8-23.6c-5.4-8.2-12.6-11.9-23.2-9.9c0,11.8,0,24.8,0,37.2c-6.6,0-12.6,0-19,0c0-29.4,0-59.7,0-89.7   c5.4,0,10.9-0.1,16.4,0c13.2,0.3,26.4-0.2,39.5,1.2c12.6,1.3,19.9,10.1,20.5,22c0.7,12.4-5.7,21.4-17.8,25.1   C462.3,68.2,460.7,68.6,458.2,69.2z M424.4,56c9.9,0,19.2,0.4,28.5-0.1c5.9-0.3,9.3-4.9,9.2-10.6c-0.1-5.5-3.5-10-9.1-10.2   c-9.5-0.4-18.9-0.1-28.6-0.1C424.4,42,424.4,49.1,424.4,56z" />
	<path
   id="path1580"
   d="M118.8,52.5c0,18.4,0,37.7,0,56.5c-5.7,0-11.2,0-17.1,0c0-29.3,0-59.8,0-89.6c5.2,0,10.4-0.3,15.5,0.2   c1.6,0.1,3.6,1.7,4.5,3.2c10.7,16.3,21.2,32.7,31.7,49.1c1.1,1.7,2.2,3.3,4.1,6.1c0-20.1,0-38.9,0-58.1c6.1,0,11.7,0,17.6,0   c0,29.4,0,59.7,0,89.7c-5.6,0-11.1,0.3-16.5-0.2c-1.7-0.2-3.8-3.1-4.8-4.8c-11.4-17.3-22.6-34.8-33.9-52.2   C119.5,52.3,119.2,52.4,118.8,52.5z" />
	<path
   id="path1582"
   d="M389.1,109.1c-23.9,0-47.1,0-70.6,0c0-29.6,0-59.9,0-89.5c23,0,45.8,0,68.9,0c0,4.8,0,9.5,0,14.7c-16.6,0-33.1,0-50,0   c0,6.6,0,12.8,0,19.4c15.3,0,30.5,0,46.1,0c0,5.2,0,10,0,15.2c-15.1,0-30.3,0-46,0c0,8.1,0,15.9,0,24.2c17,0,34.1,0,51.5,0   C389.1,98.3,389.1,104,389.1,109.1z" />
	<path
   id="path1584"
   d="M770.9,34.5c-16.7,0-32.9,0-49.5,0c0,6.5,0,12.7,0,19.3c15.2,0,30.4,0,46,0c0,5.2,0,9.9,0,15.2c-15.1,0-30.5,0-46.1,0   c0,8.2,0,15.9,0,24c17.1,0,34.1,0,51.4,0c0,5.1,0,10.8,0,15.9c-23.3,0-46.7,0-70.5,0c0-29.3,0-59.6,0-89.3c22.7,0,45.5,0,68.6,0   C770.9,24.4,770.9,29.1,770.9,34.5z" />
	<path
   id="path1586"
   d="M494.4,79.2c6.3-0.6,12.2-1.1,18.4-1.7c2,8.1,5.7,14.9,14.9,16.4c7.1,1.2,14.2,1.2,20-4c6.2-5.6,5-12.8-2.9-15.8   c-5.6-2.1-11.7-3.3-17.5-5c-3.8-1.1-7.7-2.1-11.4-3.5c-12.7-4.9-19-14-18-25.8c0.9-10.3,9.6-19.5,22.3-21.2   c8.7-1.1,18-0.8,26.6,0.7c13.2,2.4,20.2,11.7,21,25.1c-6.1,0.3-12.1,0.6-18.2,0.9c-6.2-12-13.7-15.7-25.6-11.6   c-3.1,1-6.6,4.2-7.5,7c-1.4,4.2,2.7,6.6,6.5,7.7c8.5,2.6,17.2,4.7,25.8,7.2c9.3,2.8,17.1,7.4,20.4,16.9   c5.2,14.9-2.6,31.1-18.1,35.8c-10.8,3.3-21.9,3.4-32.8,0.6C504.1,105.6,496.7,95.5,494.4,79.2z" />
	<path
   id="path1588"
   d="M221.9,19.5c7.2,0,13.6,0,20.6,0c7.6,21.1,15.2,42.2,23.4,64.8c3.4-9.6,6.3-17.8,9.2-26c4.1-11.8,8.4-23.5,12.2-35.4   c0.9-2.8,2.2-3.8,5.2-3.7c5.1,0.2,10.3,0.1,16,0.1c-0.5,1.7-0.8,3-1.2,4.3c-10,26.7-20.1,53.4-30,80.1c-1.2,3.4-2.8,5.8-6.9,5.8   c-15.5-0.2-15.5-1-20.7-15c-8.9-23.9-17.9-47.9-26.9-71.8C222.6,21.9,222.4,21,221.9,19.5z" />
	<path
   id="path1590"
   d="M662.8,109.2c-7,0-12.8,0-19.3,0c0-24.5,0-49.8,0-74.7c-9.5,0-18.4,0-27.7,0c0-5.2,0-9.9,0-14.9c24.6,0,49.2,0,74,0   c0,4.7,0,9.4,0,14.6c-8.9,0-17.6,0-27,0C662.8,59,662.8,84.3,662.8,109.2z" />
	<path
   id="path1592"
   d="M585.6,19.5c6.3,0,12.3,0,18.7,0c0,29.5,0,59.9,0,89.6c-6.2,0-12.2,0-18.7,0C585.6,79.7,585.6,49.4,585.6,19.5z" />
	<path
   id="path1594"
   d="M212.9,109.2c-6,0-11.7,0-17.9,0c0-29.5,0-59.9,0-89.6c5.7,0,11.6,0,17.9,0C212.9,48.8,212.9,79.2,212.9,109.2z" />
	<path
   id="path1596"
   d="M288,530.1c0-14.4,0-28.8,0-43.6c11,0,21.7,0,32.6,0c0,2.4,0,4.6,0,7.4c-7.6,0-15.3,0-23.3,0c0,3.3,0,6.1,0,9.4   c7.1,0,14.1,0,21.5,0c0,2.9,0,5.3,0,8.2c-7.1,0-14,0-21.4,0c0,3.9,0,7.2,0,11.2c8.1,0,16,0,24.2,0c0,2.9,0,5.1,0,7.4" />
	<path
   id="path1598"
   d="M192.5,530.1c-11.3,0-22.6,0.1-33.9,0.1c0-14.4,0-28.9,0-43.7c10.8,0,21.5,0,32.7,0c0,2.2,0,4.6,0,7.5   c-7.6,0-15.3,0-23.2,0c0,3.2,0,5.9,0,9.2c7,0,14.2,0,21.6,0c0,3.1,0,5.5,0,8.4c-7.3,0-14.2,0-21.5,0c0,3.8,0,7.2,0,11.1   c8.2,0,16.1,0,24.3,0C192.5,525.5,192.5,527.8,192.5,530.1z" />
	<path
   id="path1600"
   d="M385.4,510.2c0,3,0,5.6,0,8.5c-5.4,0-10.7,0-16.3,0c0-2.6,0-5.4,0-8.5C374.3,510.2,379.5,510.2,385.4,510.2z" />
	<path
   id="path1602"
   d="M586.2,510.3c0,2.9,0,5.5,0,8.4c-5.5,0-10.9,0-16.5,0c0-2.8,0-5.4,0-8.4C575.2,510.3,580.4,510.3,586.2,510.3z" />
	<path
   id="path1604"
   d="M702.4,511.7c0,0.5,0,1.1,0,1.6c-0.4-0.4-0.9-0.8-1.3-1.3C701.6,512,702,511.8,702.4,511.7z"
   class="st4" />
</g>
</svg>
